REM DIRINDEX 1\3,1\2\4,1\2\5,1\2\6
REM DIRNAME folder01,folder02,folder03,folder04,folder05,folder06
TITLE ""
FILE "024.mp3" MP3
  TRACK 01 AUDIO
    TITLE "4:cjc137_0969"
    INDEX 01 00:00:00
  TRACK 02 AUDIO
    TITLE "0:"
    INDEX 01 00:01:15
  TRACK 03 AUDIO
    TITLE "6:cjc137_0970"
    INDEX 01 00:01:26
  TRACK 04 AUDIO
    TITLE "0:"
    INDEX 01 00:02:22
  TRACK 05 AUDIO
    TITLE "5:cjc137_0971"
    INDEX 01 00:02:30
  TRACK 06 AUDIO
    TITLE "0:"
    INDEX 01 00:03:43
  TRACK 07 AUDIO
    TITLE "4:cjc137_0972"
    INDEX 01 00:04:54
  TRACK 08 AUDIO
    TITLE "0:"
    INDEX 01 00:05:69
  TRACK 09 AUDIO
    TITLE "6:cjc137_0973"
    INDEX 01 00:06:02
  TRACK 10 AUDIO
    TITLE "0:"
    INDEX 01 00:07:03
  TRACK 11 AUDIO
    TITLE "5:cjc137_0974"
    INDEX 01 00:07:11
  TRACK 12 AUDIO
    TITLE "0:"
    INDEX 01 00:08:24
  TRACK 13 AUDIO
    TITLE "4:cjc137_0975"
    INDEX 01 00:09:36
  TRACK 14 AUDIO
    TITLE "0:"
    INDEX 01 00:10:49
  TRACK 15 AUDIO
    TITLE "6:cjc137_0976"
    INDEX 01 00:10:55
  TRACK 16 AUDIO
    TITLE "0:"
    INDEX 01 00:12:03
  TRACK 17 AUDIO
    TITLE "5:cjc137_0977"
    INDEX 01 00:12:11
  TRACK 18 AUDIO
    TITLE "0:"
    INDEX 01 00:13:24
  TRACK 19 AUDIO
    TITLE "4:cjc137_0978"
    INDEX 01 00:14:31
  TRACK 20 AUDIO
    TITLE "0:"
    INDEX 01 00:15:30
  TRACK 21 AUDIO
    TITLE "6:cjc137_0979"
    INDEX 01 00:15:36
  TRACK 22 AUDIO
    TITLE "0:"
    INDEX 01 00:16:55
  TRACK 23 AUDIO
    TITLE "5:cjc137_0980"
    INDEX 01 00:16:63
  TRACK 24 AUDIO
    TITLE "0:"
    INDEX 01 00:17:63
  TRACK 25 AUDIO
    TITLE "4:cjc137_0981"
    INDEX 01 00:18:70
  TRACK 26 AUDIO
    TITLE "0:"
    INDEX 01 00:20:06
  TRACK 27 AUDIO
    TITLE "6:cjc137_0982"
    INDEX 01 00:20:14
  TRACK 28 AUDIO
    TITLE "0:"
    INDEX 01 00:21:00
  TRACK 29 AUDIO
    TITLE "5:cjc137_0983"
    INDEX 01 00:21:08
  TRACK 30 AUDIO
    TITLE "0:"
    INDEX 01 00:22:19
  TRACK 31 AUDIO
    TITLE "4:cjc137_0984"
    INDEX 01 00:23:24
  TRACK 32 AUDIO
    TITLE "0:"
    INDEX 01 00:24:22
  TRACK 33 AUDIO
    TITLE "6:cjc137_0985"
    INDEX 01 00:24:29
  TRACK 34 AUDIO
    TITLE "0:"
    INDEX 01 00:25:31
  TRACK 35 AUDIO
    TITLE "5:cjc137_0986"
    INDEX 01 00:25:37
  TRACK 36 AUDIO
    TITLE "0:"
    INDEX 01 00:26:36
  TRACK 37 AUDIO
    TITLE "4:cjc137_0987"
    INDEX 01 00:27:43
  TRACK 38 AUDIO
    TITLE "0:"
    INDEX 01 00:28:33
  TRACK 39 AUDIO
    TITLE "6:cjc137_0988"
    INDEX 01 00:28:43
  TRACK 40 AUDIO
    TITLE "0:"
    INDEX 01 00:29:27
  TRACK 41 AUDIO
    TITLE "5:cjc137_0989"
    INDEX 01 00:29:36
  TRACK 42 AUDIO
    TITLE "0:"
    INDEX 01 00:30:28
  TRACK 43 AUDIO
    TITLE "4:cjc137_0990"
    INDEX 01 00:31:37
  TRACK 44 AUDIO
    TITLE "0:"
    INDEX 01 00:32:54
  TRACK 45 AUDIO
    TITLE "6:cjc137_0991"
    INDEX 01 00:32:64
  TRACK 46 AUDIO
    TITLE "0:"
    INDEX 01 00:33:58
  TRACK 47 AUDIO
    TITLE "5:cjc137_0992"
    INDEX 01 00:33:62
  TRACK 48 AUDIO
    TITLE "0:"
    INDEX 01 00:35:06
  TRACK 49 AUDIO
    TITLE "4:cjc137_0993"
    INDEX 01 00:36:15
  TRACK 50 AUDIO
    TITLE "0:"
    INDEX 01 00:37:24
  TRACK 51 AUDIO
    TITLE "6:cjc137_0994"
    INDEX 01 00:37:36
  TRACK 52 AUDIO
    TITLE "0:"
    INDEX 01 00:38:55
  TRACK 53 AUDIO
    TITLE "5:cjc137_0995"
    INDEX 01 00:38:65
  TRACK 54 AUDIO
    TITLE "0:"
    INDEX 01 00:40:03
  TRACK 55 AUDIO
    TITLE "4:cjc137_0996"
    INDEX 01 00:41:10
  TRACK 56 AUDIO
    TITLE "0:"
    INDEX 01 00:42:33
  TRACK 57 AUDIO
    TITLE "6:cjc137_0997"
    INDEX 01 00:42:41
  TRACK 58 AUDIO
    TITLE "0:"
    INDEX 01 00:43:64
  TRACK 59 AUDIO
    TITLE "5:cjc137_0998"
    INDEX 01 00:43:70
  TRACK 60 AUDIO
    TITLE "0:"
    INDEX 01 00:45:18
  TRACK 61 AUDIO
    TITLE "4:cjc137_0999"
    INDEX 01 00:46:25
  TRACK 62 AUDIO
    TITLE "0:"
    INDEX 01 00:47:36
  TRACK 63 AUDIO
    TITLE "6:cjc137_1000"
    INDEX 01 00:47:44
  TRACK 64 AUDIO
    TITLE "0:"
    INDEX 01 00:48:36
  TRACK 65 AUDIO
    TITLE "5:cjc137_1001"
    INDEX 01 00:48:40
  TRACK 66 AUDIO
    TITLE "0:"
    INDEX 01 00:49:51
  TRACK 67 AUDIO
    TITLE "4:cjc137_1002"
    INDEX 01 00:50:60
  TRACK 68 AUDIO
    TITLE "0:"
    INDEX 01 00:51:69
  TRACK 69 AUDIO
    TITLE "6:cjc137_1003"
    INDEX 01 00:52:02
  TRACK 70 AUDIO
    TITLE "0:"
    INDEX 01 00:53:43
  TRACK 71 AUDIO
    TITLE "5:cjc137_1004"
    INDEX 01 00:53:51
  TRACK 72 AUDIO
    TITLE "0:"
    INDEX 01 00:54:60
  TRACK 73 AUDIO
    TITLE "4:cjc137_1005"
    INDEX 01 00:55:67
  TRACK 74 AUDIO
    TITLE "0:"
    INDEX 01 00:56:63
  TRACK 75 AUDIO
    TITLE "6:cjc137_1006"
    INDEX 01 00:56:69
  TRACK 76 AUDIO
    TITLE "0:"
    INDEX 01 00:58:09
  TRACK 77 AUDIO
    TITLE "5:cjc137_1007"
    INDEX 01 00:58:17
  TRACK 78 AUDIO
    TITLE "0:"
    INDEX 01 00:59:10
  TRACK 79 AUDIO
    TITLE "4:cjc137_1008"
    INDEX 01 01:00:17
  TRACK 80 AUDIO
    TITLE "0:"
    INDEX 01 01:01:21
  TRACK 81 AUDIO
    TITLE "6:cjc137_1009"
    INDEX 01 01:01:34
  TRACK 82 AUDIO
    TITLE "0:"
    INDEX 01 01:02:42
  TRACK 83 AUDIO
    TITLE "5:cjc137_1010"
    INDEX 01 01:02:55
  TRACK 84 AUDIO
    TITLE "0:"
    INDEX 01 01:03:57
